PathFileType	4	(X/Y/Z)	C:\Documents and Settings\rtobon\Desktop\NewMocap\New\NoT\ActorI_Run.trc
DataRate	CameraRate	NumFrames	NumMarkers	Units	OrigDataRate	OrigDataStartFrame	OrigNumFrames
120.00	120.00	       4	49	mm	120.00	92	       105
Frame#	Time	Root			LtFtHip			LtBkHip			RtFtHip			RtBkHip			Spine1			Spine2			Spine3			SpineOffsetLow			SpineOffsetHigh			LtCtChest			RtCtChest			LtChest			RtChest			LtShoulder			LtBicep			LtElbow			LtForeArm			LtWrist			LtPinky			LtThumb			LtMiddFing			RtShoulder			RtBicep			RtElbow			RtForeArm			RtWrist			RtPinky			RtThumb			RtMiddFing			LtThigh			LtKnee			LtCalf			LtAnkle			LtHeel			LtBall			LtToe			RtThigh			RtKnee			RtCalf			RtAnkle			RtHeel			RtBall			RtToe			TopHead			LfFtHead			LtBkHead			RtFtHead			RtBkHead			
		X1	Y1	Z1	X2	Y2	Z2	X3	Y3	Z3	X4	Y4	Z4	X5	Y5	Z5	X6	Y6	Z6	X7	Y7	Z7	X8	Y8	Z8	X9	Y9	Z9	X10	Y10	Z10	X11	Y11	Z11	X12	Y12	Z12	X13	Y13	Z13	X14	Y14	Z14	X15	Y15	Z15	X16	Y16	Z16	X17	Y17	Z17	X18	Y18	Z18	X19	Y19	Z19	X20	Y20	Z20	X21	Y21	Z21	X22	Y22	Z22	X23	Y23	Z23	X24	Y24	Z24	X25	Y25	Z25	X26	Y26	Z26	X27	Y27	Z27	X28	Y28	Z28	X29	Y29	Z29	X30	Y30	Z30	X31	Y31	Z31	X32	Y32	Z32	X33	Y33	Z33	X34	Y34	Z34	X35	Y35	Z35	X36	Y36	Z36	X37	Y37	Z37	X38	Y38	Z38	X39	Y39	Z39	X40	Y40	Z40	X41	Y41	Z41	X42	Y42	Z42	X43	Y43	Z43	X44	Y44	Z44	X45	Y45	Z45	X46	Y46	Z46	X47	Y47	Z47	X48	Y48	Z48	X49	Y49	Z49	
92	0.758	1239.85657	902.26941	-0.36922	1465.33240	901.18970	-113.21606	1268.97461	912.47375	-119.02271	1458.78589	860.90857	136.93715	1265.81763	884.81018	127.20438	1177.29272	1035.71802	26.25252	1119.35364	1155.68506	38.68095	1094.14954	1253.13098	37.28617	1222.89075	974.29443	97.91566	1101.18323	1210.24719	-63.84689	1388.65967	1191.71497	-16.80173	1347.59399	1243.11255	34.47208	1308.78137	1264.81873	-85.07371	1317.47205	1273.99585	105.17711	1190.06311	1310.18567	-151.78217	1186.04883	1146.98425	-271.84610	1059.04517	1098.49976	-343.65192	1196.42688	1011.83990	-270.36511	1238.28394	926.70990	-287.38449	1260.82043	849.51007	-276.86465	1278.51233	955.56860	-227.45360	1299.98108	908.56177	-277.47028	1221.06653	1298.07129	225.29968	1397.80481	1237.58057	237.61430	1485.03528	1124.15271	306.57458	1453.03088	1242.11108	230.22862	1517.85010	1340.36279	202.56770	1568.87097	1379.24353	136.04848	1451.55969	1347.08997	168.05849	1511.31580	1404.22717	172.38004	1565.70557	692.44617	-146.63174	1623.05103	493.61221	-153.35965	1522.88342	332.94351	-149.89345	1567.11584	132.40965	-113.09995	1478.70776	63.51619	-31.31271	1646.23962	26.34451	-102.82599	1738.50952	22.56249	-42.03370	1478.17896	550.61896	140.12598	1421.90515	370.17844	183.91515	1239.80945	405.83047	169.15967	1039.44299	352.50558	88.39758	991.97333	364.56186	-14.79488	966.46295	231.82938	129.94954	969.92627	125.94585	113.90641	993.28894	1494.54456	14.55817	1132.89185	1504.08044	-50.02253	1058.48975	1383.63440	-63.46303	1137.53162	1530.90356	73.10954	1047.66479	1401.02954	114.48682	
93	0.767	1269.54370	898.51373	-1.70032	1494.20300	896.78094	-114.33183	1299.63477	909.07245	-120.55455	1488.36023	856.71771	135.53552	1294.95215	879.73083	126.10901	1207.62000	1031.37598	23.40773	1149.79626	1151.86328	35.62006	1125.86218	1249.57678	34.43294	1251.81775	969.25781	96.45757	1133.16943	1206.20190	-66.74895	1420.27515	1187.36975	-15.73236	1378.87695	1238.56079	35.15852	1341.68408	1260.53162	-84.46841	1349.38245	1269.35229	106.26151	1223.47302	1305.71179	-153.12988	1228.21777	1139.51672	-271.86249	1105.02991	1086.21484	-347.29550	1244.95789	1006.17822	-269.86395	1291.32410	923.83728	-286.16647	1316.66028	847.52789	-274.89050	1328.50134	954.02576	-225.99350	1352.98303	908.41620	-275.02609	1252.96655	1289.47510	226.74852	1427.40161	1217.60242	238.13083	1505.64990	1096.96204	305.92355	1484.28601	1217.97473	230.88547	1556.94861	1310.61523	204.31734	1612.41138	1346.38562	138.70035	1491.60400	1324.02344	170.44850	1555.94446	1375.72144	174.35709	1590.85193	681.73145	-151.48004	1641.15527	481.73636	-155.20732	1538.99487	322.87836	-148.35075	1568.76221	123.34612	-104.85875	1476.26074	57.25724	-22.95109	1646.19360	28.91109	-95.60387	1739.79688	22.54288	-40.15561	1522.65967	552.09125	142.21828	1477.34998	369.33350	188.14549	1296.73853	405.66183	173.84633	1096.18579	356.18283	92.30762	1047.37158	368.99347	-11.02728	1023.17682	236.74118	133.51125	1027.07739	131.38872	118.27394	1026.12183	1492.81470	13.76441	1166.76672	1502.38098	-50.40866	1091.29541	1382.19604	-64.29048	1170.28650	1527.89575	73.64360	1079.55212	1398.18469	113.54897	
94	0.775	1298.91235	894.68787	-2.93959	1523.28638	891.86823	-115.29758	1329.08667	904.98486	-121.62045	1518.31079	852.06476	134.51598	1323.10876	873.36029	124.04945	1237.61072	1026.35376	20.64754	1181.09851	1146.96069	32.03727	1157.45349	1245.44495	32.16551	1280.34802	963.86316	94.59657	1165.79407	1201.28528	-68.81903	1452.18347	1182.76636	-14.64221	1410.76990	1233.47607	35.66669	1374.58801	1256.75012	-83.87126	1380.28076	1263.33594	108.15816	1257.90186	1300.18127	-155.32471	1271.19958	1132.33252	-271.37375	1152.66956	1073.08411	-350.67111	1293.79089	1000.64154	-268.63776	1344.55884	919.83386	-283.01382	1374.14258	845.62579	-270.67865	1378.59656	953.10229	-222.62849	1407.67810	908.49060	-270.73160	1284.25037	1280.32178	228.48041	1455.54260	1196.48303	238.96350	1523.60315	1068.93408	304.51691	1514.12329	1192.55762	231.72308	1595.36963	1278.46045	206.64708	1653.80750	1310.22510	141.91388	1532.04492	1297.73364	171.47029	1600.34265	1343.97839	177.12334	1615.95862	671.35577	-154.44730	1659.73560	468.35483	-157.20602	1550.81384	314.66672	-147.64824	1568.49695	115.88931	-95.91324	1473.02380	46.15480	-17.01320	1643.84778	30.31703	-91.44092	1737.39172	22.72499	-35.23156	1567.45081	554.18347	143.32570	1534.43103	370.16238	190.93185	1353.75012	405.73804	177.89767	1152.94238	358.99432	96.85877	1103.30713	372.26855	-6.67129	1082.44250	240.29636	138.38763	1087.93555	134.51750	122.48301	1059.60535	1491.00403	12.85510	1200.36292	1500.35217	-49.73817	1124.44678	1380.42908	-65.72578	1203.27783	1524.83167	73.80956	1111.40735	1394.85291	112.10379	
95	0.783	1328.80383	890.04797	-4.98699	1551.98535	885.32281	-116.56239	1358.93616	901.64294	-123.48625	1547.39160	846.72131	133.73421	1352.23840	866.67920	123.34257	1267.16748	1021.34570	18.27793	1211.92725	1142.40552	29.67862	1189.58435	1240.63562	29.67953	1310.09790	957.11597	91.50209	1198.20837	1196.34839	-72.29885	1483.35779	1176.92883	-13.01807	1442.77173	1228.26697	37.11427	1407.88879	1252.38220	-83.32314	1412.00195	1256.81433	110.10667	1292.45093	1294.55908	-156.42448	1314.69751	1124.47815	-271.32712	1202.01111	1059.85327	-353.54138	1343.89783	995.29169	-267.43881	1399.08887	918.08777	-280.52966	1432.17224	844.86615	-266.75714	1430.08423	952.62421	-218.34872	1462.78259	909.33716	-265.67715	1314.82666	1270.24194	229.89696	1481.87219	1174.52344	240.07698	1538.83252	1040.65039	302.08661	1542.30896	1166.24707	231.51700	1631.43640	1244.57446	209.25232	1693.72241	1271.51465	145.25096	1570.87561	1269.99927	174.39523	1642.95874	1309.66528	180.20683	1639.18579	660.86896	-155.40849	1675.89661	454.37234	-157.55602	1562.28528	308.26364	-146.45851	1570.13513	108.55778	-90.78539	1472.79114	39.52153	-10.18928	1641.80554	30.46471	-89.15915	1740.55334	21.13634	-36.04387	1611.83801	557.67859	143.57841	1591.70886	373.18417	193.21696	1411.31885	406.80457	183.50937	1210.27966	360.83151	102.09587	1159.12854	374.04581	-1.64415	1142.50269	241.17926	143.19962	1150.67957	135.26003	126.84969	1092.02185	1488.60669	12.11420	1233.80200	1497.96057	-49.75703	1157.44678	1378.30872	-66.88429	1235.31982	1521.60193	74.80222	1142.64355	1391.66138	110.94416	
